<svg xmlns="http://www.w3.org/2000/svg" viewBox="0 0 900 560"><rect width="900" height="560" fill="#0b1728"/><path d="M450 84 L690 174 V326 C690 410 590 476 450 506 C310 476 210 410 210 326 V174 Z" fill="#10243b" stroke="#3de2d2" stroke-width="12"/><path d="M450 162 L592 216 V316 C592 366 530 412 450 436 C370 412 308 366 308 316 V216 Z" fill="#3de2d2" opacity=".14"/><path d="M386 292 L432 338 L524 246" fill="none" stroke="#77df87" stroke-width="22" stroke-linecap="round" stroke-linejoin="round"/><path d="M122 132 H244 M656 132 H778 M118 420 H268 M632 420 H786" stroke="#4aa8ff" stroke-width="10" stroke-linecap="round" opacity=".45"/><circle cx="244" cy="132" r="13" fill="#4aa8ff"/><circle cx="656" cy="132" r="13" fill="#4aa8ff"/><circle cx="268" cy="420" r="13" fill="#4aa8ff"/><circle cx="632" cy="420" r="13" fill="#4aa8ff"/></svg>